<svg width="77" height="77" viewBox="0 0 77 77" fill="none" xmlns="http://www.w3.org/2000/svg">
<path d="M77 38.5C77 59.763 59.763 77 38.5 77C17.237 77 0 59.763 0 38.5C0 17.237 17.237 0 38.5 0C59.763 0 77 17.237 77 38.5Z" fill="#DFE7F3"/>
<path fill-rule="evenodd" clip-rule="evenodd" d="M44.8957 25.2709C46.0348 26.4099 46.0348 28.2567 44.8957 29.3957L35.2915 39L44.8957 48.6042C46.0348 49.7433 46.0348 51.59 44.8957 52.729C43.7567 53.868 41.91 53.868 40.7709 52.729L29.1043 41.0624C27.9652 39.9233 27.9652 38.0766 29.1043 36.9376L40.7709 25.2709C41.91 24.1319 43.7567 24.1319 44.8957 25.2709Z" fill="#3981EE"/>
</svg>
