<svg width="23" height="21" viewBox="0 0 23 21" fill="none" xmlns="http://www.w3.org/2000/svg">
<path fill-rule="evenodd" clip-rule="evenodd" d="M22 1.30823V18.4225C22 18.4225 11.5 17.8105 11.5 20.0001C11.5 20.0001 11.5 8.36944 11.5 3.80303C11.5 0.0708201 22 1.30823 22 1.30823Z" stroke="#64769A" stroke-width="2" stroke-linecap="round" stroke-linejoin="round"/>
<path fill-rule="evenodd" clip-rule="evenodd" d="M1 1.30823V18.4225L1.8746 18.3755V18.3755L2.71118 18.3386V18.3386L3.50973 18.3119V18.3119L4.27026 18.2953C4.39384 18.2934 4.51584 18.2919 4.63626 18.2908L5.33975 18.2895V18.2895L6.00521 18.2983V18.2983L6.63264 18.3172V18.3172L7.22205 18.3463C7.41218 18.3577 7.59597 18.3708 7.77343 18.3855L8.28678 18.4349C10.3465 18.6618 11.416 19.1529 11.4952 19.9082L11.5 19.9644V19.9644V3.80303V3.80303C11.5 1.77189 9.16764 0.84466 4.50292 1.02133L3.78571 1.05611C3.66327 1.06328 3.53936 1.07115 3.41399 1.07971L2.64431 1.13932C2.38192 1.16195 2.1137 1.18735 1.83965 1.2155L1 1.30823V1.30823Z" stroke="#64769A" stroke-width="2" stroke-linecap="round" stroke-linejoin="round"/>
</svg>
