<svg width="19" height="19" viewBox="0 0 19 19" fill="none" xmlns="http://www.w3.org/2000/svg">
<path fill-rule="evenodd" clip-rule="evenodd" d="M10.8787 0.87868C12.0503 -0.292893 13.9497 -0.292893 15.1213 0.87868L17.2929 3.05025C18.4645 4.22183 18.4645 6.12132 17.2929 7.29289L8.41421 16.1716H18C18.5523 16.1716 19 16.6193 19 17.1716C19 17.7239 18.5523 18.1716 18 18.1716H1C0.447715 18.1716 0 17.7239 0 17.1716V12.1716C0 11.9064 0.105357 11.652 0.292893 11.4645L10.8787 0.87868ZM5.58579 16.1716L15.8787 5.87868C16.2692 5.48815 16.2692 4.85499 15.8787 4.46447L13.7071 2.29289C13.3166 1.90237 12.6834 1.90237 12.2929 2.29289L2 12.5858V16.1716H5.58579Z" fill="#B1B9C5"/>
</svg>
