<svg width="93" height="94" viewBox="0 0 93 94" fill="none" xmlns="http://www.w3.org/2000/svg">
<rect width="93" height="94" rx="10" fill="#2563EB"/>
<path d="M25.365 41.5986V60.6237C25.365 61.3083 25.7816 61.9247 26.4186 62.1827L45.8627 70.0587C46.2713 70.2242 46.7287 70.2242 47.1373 70.0587L66.5814 62.1827C67.2184 61.9247 67.635 61.3083 67.635 60.6237V41.5986M46.5 36.2337L58.3356 41.1466V72M14.5147 37.0082L46.1693 50.4003C46.3806 50.4897 46.6194 50.4897 46.8307 50.4003L78.4853 37.0082C79.1716 36.7178 79.1716 35.7495 78.4853 35.4592L46.8307 22.067C46.6194 21.9777 46.3806 21.9777 46.1693 22.067L14.5147 35.4592C13.8284 35.7495 13.8284 36.7178 14.5147 37.0082Z" stroke="white" stroke-width="6" stroke-linecap="round" stroke-linejoin="round"/>
</svg>
