<svg width="21" height="22" viewBox="0 0 21 22" fill="none" xmlns="http://www.w3.org/2000/svg">
<path d="M2.92893 18.0711C4.32746 19.4696 6.10929 20.422 8.0491 20.8079C9.98891 21.1937 11.9996 20.9957 13.8268 20.2388C15.6541 19.4819 17.2159 18.2002 18.3147 16.5557C19.4135 14.9112 20 12.9778 20 11C20 9.02219 19.4135 7.08879 18.3147 5.4443C17.2159 3.79981 15.6541 2.51808 13.8268 1.76121C11.9996 1.00433 9.98891 0.806295 8.0491 1.19215C6.10929 1.578 4.32746 2.53041 2.92893 3.92893" stroke="#64769A" stroke-width="2"/>
<path d="M13 11L13.7809 10.3753L14.2806 11L13.7809 11.6247L13 11ZM1 12C0.447715 12 0 11.5523 0 11C0 10.4477 0.447715 10 1 10V11V12ZM9 6L9.78087 5.3753L13.7809 10.3753L13 11L12.2191 11.6247L8.21913 6.6247L9 6ZM13 11L13.7809 11.6247L9.78087 16.6247L9 16L8.21913 15.3753L12.2191 10.3753L13 11ZM13 11V12H1V11V10H13V11Z" fill="#64769A"/>
</svg>
