<svg width="30" height="30" viewBox="0 0 30 30" fill="none" xmlns="http://www.w3.org/2000/svg">
<mask id="mask0_3471_130" style="mask-type:alpha" maskUnits="userSpaceOnUse" x="0" y="0" width="30" height="30">
<circle cx="15" cy="15" r="15" fill="#D9D9D9"/>
</mask>
<g mask="url(#mask0_3471_130)">
<circle cx="16" cy="18" r="18" fill="#BECFF4"/>
<ellipse cx="14.9998" cy="10.3374" rx="5.71429" ry="5.33737" fill="#3981EE" stroke="#3981EE" stroke-width="2" stroke-linecap="round"/>
<path d="M5.99353 23.7477C6.90842 21.1167 9.55571 19.6777 12.3413 19.6777H17.6587C20.4443 19.6777 23.0916 21.1167 24.0065 23.7477C24.4519 25.0287 24.835 26.5062 24.9584 28.0191C25.0033 28.5696 24.5523 29.0181 24 29.0181H6C5.44772 29.0181 4.99675 28.5696 5.04164 28.0191C5.16505 26.5062 5.5481 25.0287 5.99353 23.7477Z" fill="#3981EE" stroke="#3981EE" stroke-width="2" stroke-linecap="round"/>
<ellipse cx="15" cy="10.3226" rx="5.78947" ry="5.32258" fill="#3981EE"/>
<ellipse cx="15" cy="28.4194" rx="10" ry="9.58065" fill="#3981EE"/>
</g>
</svg>
